# xmcd
#
# Track frame offsets: 
#        150
#        17024
#        33796
#        71982
#        102399
#        126506
#        143820
#        174041
#        196315
#        216287
#        240567
#
# Disc length: 3436 seconds
#
# Revision: 0
# Processed by: cddbd v1.5.2PL0 Copyright (c) Steve Scherf et al.
# Submitted via: ExactAudioCopy v0.99pb4
#
DISCID=9a0d6a0b
DTITLE=Bluebone - Live At Cape May
DYEAR=2002
DGENRE=Blues
TTITLE0=ABC's
TTITLE1=Clown For You
TTITLE2=Red House
TTITLE3=Hey Baby
TTITLE4=Bad Is Bad
TTITLE5=Every Day You'll Remember
TTITLE6=La Grange
TTITLE7=Cookin' In The Kitchen
TTITLE8=Don't Talk To Me
TTITLE9=Bad Dog
TTITLE10=Christine
EXTD=
EXTT0=
EXTT1=
EXTT2=
EXTT3=
EXTT4=
EXTT5=
EXTT6=
EXTT7=
EXTT8=
EXTT9=
EXTT10=
PLAYORDER=
